<?xml version="1.0" encoding="utf-8"?>
<!-- Generator: Adobe Illustrator 18.1.1, SVG Export Plug-In . SVG Version: 6.00 Build 0)  -->
<svg version="1.1" id="Layer_1" xmlns="http://www.w3.org/2000/svg" xmlns:xlink="http://www.w3.org/1999/xlink" x="0px" y="0px"
	 viewBox="0 0 14 14" enable-background="new 0 0 14 14" xml:space="preserve">
<g>
	<g>
		<path fill="#ffffff" d="M13.999,9.616L13.788,9.43c-0.027-0.023-2.655-2.37-2.916-5.792L10.664,0.9l-0.295-0.166
			C10.316,0.704,9.043,0,7.065,0H6.97C4.99,0,3.722,0.705,3.669,0.735L3.375,0.901L3.169,3.639C2.913,7.058,0.243,9.404,0.217,9.426
			L0,9.613V11h14L13.999,9.616z"/>
	</g>
	<path fill="#ffffff" d="M7.083,14c1.103,0,2-1,2-2h-4C5.083,13,5.98,14,7.083,14z"/>
</g>
</svg>
