<?xml version="1.0" encoding="utf-8"?>
<!-- Generator: Adobe Illustrator 18.1.1, SVG Export Plug-In . SVG Version: 6.00 Build 0)  -->
<svg version="1.1" id="Layer_1" xmlns="http://www.w3.org/2000/svg" xmlns:xlink="http://www.w3.org/1999/xlink" x="0px" y="0px"
	 viewBox="0 0 14 14" enable-background="new 0 0 14 14" xml:space="preserve">
<g>
	<path fill="none" d="M6,2C3.794,2,2,3.794,2,6c0,2.206,1.794,4,4,4s4-1.794,4-4C10,3.794,8.206,2,6,2z"/>
	<path fill="#4ccde8" d="M14,12.586l-3.113-3.113C11.585,8.492,12,7.296,12,6c0-3.314-2.686-6-6-6S0,2.686,0,6c0,3.314,2.686,6,6,6
		c1.296,0,2.492-0.415,3.473-1.113L12.586,14L14,12.586z M6,10c-2.206,0-4-1.794-4-4c0-2.206,1.794-4,4-4s4,1.794,4,4
		C10,8.206,8.206,10,6,10z"/>
</g>
</svg>
